<?xml version="1.0" standalone="no"?>
<!DOCTYPE svg PUBLIC "-//W3C//DTD SVG 20010904//EN"
 "http://www.w3.org/TR/2001/REC-SVG-20010904/DTD/svg10.dtd">
<svg version="1.0" xmlns="http://www.w3.org/2000/svg"
 width="215.000000pt" height="213.000000pt" viewBox="0 0 215.000000 213.000000"
 preserveAspectRatio="xMidYMid meet">

<g transform="translate(0.000000,213.000000) scale(0.100000,-0.100000)"
fill="#000000" stroke="none">
<path d="M521 2119 c-174 -19 -280 -60 -360 -140 -85 -86 -122 -187 -141 -390
-15 -144 -7 -1088 9 -1169 41 -214 131 -332 297 -391 l69 -24 662 -3 c732 -3
738 -2 854 60 107 57 177 152 215 293 18 65 19 115 19 700 0 583 -1 635 -19
700 -53 200 -173 309 -386 351 -71 14 -170 17 -610 19 -289 2 -563 -1 -609 -6z
m1096 -587 c29 -18 33 -61 17 -185 -31 -241 -123 -768 -143 -812 -24 -55 -57
-71 -110 -54 -38 12 -386 243 -433 287 -53 49 -47 59 179 279 169 163 206 204
195 214 -16 17 -15 17 -316 -184 -131 -88 -256 -166 -279 -174 -46 -16 -83
-12 -202 23 -102 30 -152 53 -159 71 -10 25 11 50 61 73 91 43 649 282 833
358 264 107 324 125 357 104z"/>
</g>
</svg>
