<?xml version="1.0" standalone="no"?>
<!DOCTYPE svg PUBLIC "-//W3C//DTD SVG 20010904//EN"
 "http://www.w3.org/TR/2001/REC-SVG-20010904/DTD/svg10.dtd">
<svg version="1.0" xmlns="http://www.w3.org/2000/svg"
 width="217.000000pt" height="213.000000pt" viewBox="0 0 217.000000 213.000000"
 preserveAspectRatio="xMidYMid meet">

<g transform="translate(0.000000,213.000000) scale(0.100000,-0.100000)"
fill="#000000" stroke="none">
<path d="M511 2119 c-278 -30 -418 -134 -475 -354 -28 -111 -36 -265 -36 -710
0 -445 8 -599 36 -710 46 -177 152 -283 330 -329 54 -14 150 -16 709 -16 559
0 655 2 709 16 178 46 284 152 330 329 28 111 36 265 36 710 0 244 -5 489 -11
546 -35 355 -163 483 -518 518 -123 13 -988 12 -1110 0z m113 -731 c18 -184
68 -318 153 -409 39 -42 124 -99 148 -99 3 0 5 131 5 290 l0 290 110 0 110 0
0 -165 c0 -125 3 -165 13 -165 30 1 102 43 153 91 57 54 112 136 135 202 l13
37 108 0 c82 0 108 -3 108 -13 0 -7 -9 -41 -21 -75 -36 -106 -132 -237 -219
-297 -22 -15 -40 -30 -40 -34 0 -3 23 -19 51 -36 108 -64 247 -244 274 -357
l7 -28 -119 0 -119 0 -31 64 c-62 126 -150 197 -285 230 l-28 6 0 -151 0 -152
-92 6 c-305 19 -512 182 -614 480 -28 83 -54 228 -54 305 l0 52 114 0 113 0 7
-72z"/>
</g>
</svg>
