<?xml version="1.0" standalone="no"?>
<!DOCTYPE svg PUBLIC "-//W3C//DTD SVG 20010904//EN"
 "http://www.w3.org/TR/2001/REC-SVG-20010904/DTD/svg10.dtd">
<svg version="1.0" xmlns="http://www.w3.org/2000/svg"
 width="512.000000pt" height="512.000000pt" viewBox="0 0 512.000000 512.000000"
 preserveAspectRatio="xMidYMid meet">

<g transform="translate(0.000000,512.000000) scale(0.100000,-0.100000)"
fill="#000000" stroke="none">
<path d="M2585 5106 c-243 -56 -434 -229 -511 -463 -26 -78 -29 -102 -29 -213
1 -110 4 -135 29 -205 46 -134 78 -178 259 -362 l169 -172 -18 -48 c-16 -42
-18 -93 -22 -435 -2 -214 -5 -388 -7 -388 -1 0 -24 10 -51 22 -63 28 -168 30
-241 5 -30 -11 -73 -37 -100 -62 l-48 -43 -48 44 c-60 54 -130 79 -223 78 -60
0 -82 -5 -137 -32 -77 -38 -138 -102 -163 -170 -10 -26 -18 -48 -19 -50 -1 -1
-29 10 -61 25 -48 22 -74 27 -134 28 -66 0 -85 -5 -142 -33 -77 -38 -130 -92
-167 -171 l-26 -56 0 -585 0 -585 28 -88 c34 -109 55 -152 228 -454 l139 -243
0 -200 c0 -200 0 -201 25 -225 31 -32 69 -32 101 0 l25 25 -3 228 -3 227 -159
275 c-88 151 -170 302 -183 334 -50 121 -53 169 -53 729 0 511 0 522 21 565
53 108 181 140 282 70 55 -39 62 -66 67 -269 4 -166 7 -189 24 -208 22 -25 72
-28 102 -7 20 14 21 27 28 302 6 255 9 291 26 325 52 101 192 126 281 52 64
-55 69 -77 69 -379 0 -270 0 -271 23 -292 31 -29 77 -29 105 1 21 23 22 30 22
293 0 239 2 273 19 309 50 110 183 145 283 74 60 -43 63 -57 68 -370 5 -264 7
-289 24 -308 26 -29 86 -29 112 0 18 20 19 52 24 808 6 868 2 823 68 870 100
71 233 36 283 -74 18 -38 19 -91 19 -1016 0 -967 0 -975 20 -997 28 -30 82
-30 110 0 19 21 20 34 20 296 l0 275 45 -6 c70 -7 134 -52 168 -117 l28 -55
-3 -360 c-5 -473 12 -420 -267 -860 l-171 -269 0 -227 0 -228 26 -20 c43 -34
86 -26 109 20 12 22 15 71 15 220 l0 192 171 269 c266 419 269 430 269 929 0
308 -2 342 -20 400 -45 146 -190 259 -332 259 l-37 0 -3 653 -3 652 -28 57
c-36 74 -119 150 -189 174 -32 11 -81 19 -124 18 -59 0 -82 -5 -133 -30 l-61
-30 -158 160 c-114 117 -167 178 -190 222 -112 215 -64 483 117 645 194 174
489 184 688 23 66 -54 87 -53 166 5 222 163 506 143 698 -48 168 -167 205
-409 98 -624 -26 -52 -84 -115 -370 -402 -186 -187 -342 -351 -347 -365 -22
-60 37 -115 97 -90 42 17 668 652 718 728 139 209 148 488 25 712 -46 85 -177
216 -262 263 -110 60 -197 82 -330 82 -154 -1 -241 -25 -385 -110 -30 -17 -30
-17 -90 19 -132 80 -343 116 -490 82z"/>
</g>
</svg>
