<?xml version="1.0" standalone="no"?>
<!DOCTYPE svg PUBLIC "-//W3C//DTD SVG 20010904//EN"
 "http://www.w3.org/TR/2001/REC-SVG-20010904/DTD/svg10.dtd">
<svg version="1.0" xmlns="http://www.w3.org/2000/svg"
 width="221.000000pt" height="216.000000pt" viewBox="0 0 221.000000 216.000000"
 preserveAspectRatio="xMidYMid meet">

<g transform="translate(0.000000,216.000000) scale(0.100000,-0.100000)"
fill="#000000" stroke="none">
<path d="M561 2149 c-179 -20 -277 -56 -361 -135 -88 -83 -131 -199 -149 -411
-14 -153 -14 -883 0 -1036 24 -276 96 -410 262 -487 127 -60 192 -65 802 -65
401 0 570 3 624 13 269 47 384 159 433 427 18 100 18 1160 0 1260 -48 262
-160 376 -418 426 -74 14 -1074 21 -1193 8z m703 -489 c216 -55 378 -216 432
-430 23 -91 15 -253 -16 -335 -118 -309 -445 -464 -748 -354 -92 33 -95 33
-242 -6 -78 -20 -143 -35 -146 -32 -3 3 13 70 35 151 l39 145 -25 53 c-13 28
-31 81 -39 117 -89 421 297 797 710 691z"/>
<path d="M1046 1569 c-133 -20 -287 -133 -351 -258 -72 -143 -66 -335 14 -465
l20 -31 -24 -85 c-13 -46 -22 -86 -21 -88 2 -1 42 7 88 20 l85 22 59 -26 c32
-15 80 -32 107 -39 69 -17 209 -7 279 20 120 46 229 156 279 282 26 67 36 194
20 271 -40 191 -205 347 -401 378 -72 11 -71 11 -154 -1z m-46 -275 c36 -80
37 -87 5 -128 -24 -31 -24 -32 -6 -62 40 -65 153 -154 195 -154 12 0 32 15 46
35 14 19 31 35 38 35 24 0 142 -59 143 -72 5 -61 -11 -92 -61 -118 -105 -53
-264 11 -407 163 -127 137 -157 253 -87 337 21 24 34 30 65 30 39 0 40 -1 69
-66z"/>
</g>
</svg>
