<svg xmlns="http://www.w3.org/2000/svg">
        <symbol id="icon-logo" viewBox="0 0 1092.000000 1148.000000"
 preserveAspectRatio="xMidYMid meet">
                <g transform="translate(0.000000,1148.000000) scale(0.100000,-0.100000)"
fill="currentcolor" stroke="none">
                        <path d="M6590 11237 c-100 -37 -178 -122 -187 -201 -12 -107 64 -201 278
-341 41 -27 75 -50 77 -51 9 -6 32 -131 43 -233 14 -134 6 -400 -15 -506 -33
-164 -103 -269 -208 -316 -69 -30 -222 -33 -313 -6 -184 56 -448 199 -574 313
l-50 45 102 85 c451 378 667 605 667 702 0 57 -49 92 -127 92 -122 -1 -521
-175 -669 -293 -124 -99 -194 -219 -194 -334 0 -47 38 -159 71 -204 11 -16 19
-33 17 -38 -4 -11 -435 -334 -536 -403 -64 -43 -73 -53 -70 -76 6 -50 38 -40
184 58 74 50 205 144 291 208 85 64 164 123 174 131 18 12 24 10 67 -28 136
-119 437 -287 597 -333 65 -18 105 -23 210 -23 l131 0 76 38 c91 45 136 92
185 194 38 79 67 222 76 373 6 93 -9 383 -22 443 -5 20 -6 39 -2 41 3 2 58
-24 121 -58 63 -34 196 -105 295 -158 99 -53 277 -151 395 -218 118 -67 341
-192 495 -278 154 -85 406 -230 560 -322 569 -339 910 -507 1152 -565 40 -10
77 -23 82 -29 6 -7 14 -375 20 -901 6 -490 16 -1020 22 -1180 17 -437 -2
-1431 -36 -1940 -19 -278 -54 -558 -81 -646 -4 -14 -25 -16 -147 -16 -171 0
-276 -22 -395 -82 -230 -115 -322 -329 -194 -448 130 -121 356 -99 542 52 85
68 151 155 207 272 32 67 49 93 62 93 54 0 265 -89 373 -156 127 -79 365 -298
355 -327 -12 -39 -763 -97 -1252 -97 -266 0 -388 9 -602 47 -124 21 -155 24
-168 13 -22 -18 -18 -47 8 -64 36 -24 355 -66 567 -76 351 -16 1033 20 1350
71 176 28 199 35 206 64 16 64 -117 217 -327 375 -134 101 -253 162 -407 210
-83 26 -102 35 -98 48 26 85 53 269 70 477 43 503 65 1519 48 2114 -7 223 -14
638 -17 921 -3 283 -8 662 -11 841 l-5 326 58 6 c128 14 198 56 246 147 25 47
28 64 25 116 -9 145 -134 240 -251 190 -80 -34 -132 -128 -148 -263 -5 -48
-12 -89 -14 -92 -3 -2 -31 3 -63 13 -290 88 -642 262 -1122 554 -113 69 -360
211 -550 317 -190 106 -448 251 -575 322 -126 72 -288 161 -360 198 -337 176
-465 249 -465 264 0 5 21 53 48 107 46 96 47 101 47 190 0 87 -2 95 -30 136
-44 63 -119 100 -209 105 -43 2 -85 -2 -106 -10z m188 -95 c94 -48 106 -160
34 -306 -24 -47 -47 -86 -53 -86 -18 0 -153 97 -200 144 -26 25 -54 62 -63 81
-17 35 -17 38 4 80 48 99 177 139 278 87z m-458 -423 c0 -40 -137 -191 -335
-369 -233 -209 -397 -341 -409 -331 -28 23 -60 108 -64 167 -6 86 22 145 106
227 81 77 154 125 287 188 228 107 415 160 415 118z m3942 -1427 c43 -39 54
-85 33 -137 -31 -83 -119 -136 -206 -123 -22 3 -24 7 -21 53 7 107 51 206 102
232 31 15 57 8 92 -25z m-407 -5123 c10 -11 -60 -151 -108 -216 -120 -162
-306 -243 -451 -198 -101 32 -130 98 -85 192 26 54 103 124 175 159 106 52
216 74 346 72 64 -2 119 -6 123 -9z"/>
                        <path d="M5816 9521 c-43 -67 -256 -500 -256 -519 0 -40 45 -55 72 -24 9 9 73
135 143 279 109 224 125 264 115 282 -17 33 -47 26 -74 -18z"/>
                        <path d="M2485 9499 c-152 -81 -307 -229 -425 -405 -128 -191 -203 -366 -270
-624 -40 -156 -38 -156 -60 -20 -59 353 -207 645 -451 893 -97 98 -121 117
-146 117 -52 0 -57 -15 -49 -168 12 -250 43 -466 87 -608 66 -215 215 -463
468 -784 145 -183 195 -267 216 -367 28 -129 23 -137 -85 -148 l-65 -6 -40 63
c-49 78 -169 205 -253 269 -142 108 -349 193 -564 231 -110 20 -156 23 -446
23 l-324 0 -19 -24 c-26 -32 -19 -59 36 -141 119 -176 310 -381 435 -469 221
-155 505 -246 810 -258 158 -6 242 5 418 54 51 14 95 23 99 20 6 -6 -22 -250
-33 -293 -5 -17 -18 -22 -97 -32 -209 -26 -317 -94 -317 -198 0 -93 74 -147
212 -152 79 -4 92 -2 131 21 55 32 90 85 118 177 l21 72 62 -7 c33 -4 93 -13
132 -21 206 -41 275 -92 287 -211 6 -65 -45 -403 -62 -403 -3 0 -73 10 -156
21 -113 16 -226 23 -460 28 l-310 6 -23 200 c-30 260 -32 269 -59 273 -38 6
-44 -24 -33 -162 6 -69 15 -158 20 -198 16 -121 14 -128 -19 -128 -16 0 -84
-9 -152 -21 -380 -65 -598 -199 -634 -392 -22 -114 65 -208 231 -251 51 -13
157 -24 379 -41 239 -17 280 -21 385 -31 120 -11 220 -59 220 -104 0 -16 -7
-18 -57 -16 -32 1 -110 -1 -173 -6 -300 -21 -462 -134 -642 -448 -66 -115
-135 -262 -263 -560 -255 -589 -266 -622 -230 -636 10 -4 24 -3 33 2 15 10
109 217 283 624 349 816 487 950 964 938 l119 -3 9 -45 c8 -42 2 -441 -7 -485
-2 -11 -7 -83 -11 -160 -4 -77 -9 -151 -10 -165 -7 -58 -8 -827 -1 -838 13
-21 56 -14 65 10 4 13 9 171 10 353 1 181 4 359 6 395 2 36 7 126 10 200 4 74
8 149 10 165 13 106 21 459 12 545 l-2 25 165 12 c348 26 621 81 770 154 112
56 209 149 235 228 21 63 17 159 -9 209 -60 116 -188 186 -460 253 -65 16
-120 30 -122 32 -2 2 8 64 22 138 16 83 27 173 28 239 1 99 -1 108 -29 159
-57 103 -168 156 -395 188 -110 15 -120 18 -120 37 1 17 37 337 39 343 3 7
188 43 223 43 37 0 46 -4 60 -28 30 -50 146 -169 217 -221 138 -102 331 -182
526 -217 189 -33 657 -28 735 9 61 29 21 110 -123 243 -268 248 -762 402
-1092 340 -98 -19 -135 -36 -135 -65 0 -38 23 -44 107 -25 100 23 285 23 407
0 263 -50 545 -193 696 -351 l65 -69 -30 -8 c-16 -4 -100 -11 -185 -14 -302
-13 -576 33 -765 129 -137 69 -274 183 -346 289 -22 32 -49 63 -60 69 -24 12
-108 5 -207 -17 -35 -8 -70 -14 -78 -14 -18 0 -19 34 -1 48 7 6 91 29 186 52
367 86 675 180 845 259 283 131 518 332 677 582 35 55 92 143 127 196 101 155
88 169 -124 134 -65 -11 -180 -27 -254 -36 -541 -65 -753 -149 -1045 -411 -92
-83 -205 -213 -279 -322 -32 -48 -63 -87 -67 -87 -5 0 -38 47 -73 105 -46 74
-62 109 -56 120 21 37 116 137 253 264 251 234 340 365 417 614 40 133 52 215
53 362 0 192 -25 330 -64 350 -24 14 -29 13 -74 -11z m42 -116 c4 -21 8 -123
7 -228 0 -173 -3 -199 -27 -290 -34 -126 -109 -280 -186 -382 -33 -44 -142
-158 -242 -254 -200 -191 -269 -274 -269 -321 0 -21 29 -78 93 -181 50 -82 98
-152 105 -154 33 -13 59 10 119 104 172 272 434 511 676 616 127 54 286 93
511 122 105 14 238 32 295 41 57 8 106 12 109 10 5 -6 -87 -160 -146 -245
-203 -289 -465 -470 -874 -605 -186 -62 -728 -200 -738 -189 -4 5 -12 42 -18
84 -22 147 -60 218 -233 436 -258 324 -403 567 -464 778 -43 150 -98 576 -76
598 12 12 172 -162 234 -255 139 -211 211 -411 262 -734 47 -301 48 -304 91
-304 33 0 39 17 69 195 80 470 236 802 491 1045 71 67 177 149 196 150 4 0 11
-17 15 -37z m-1827 -1504 c200 -19 369 -67 523 -147 159 -83 279 -195 396
-369 48 -72 67 -81 148 -64 87 17 103 15 103 -13 0 -33 -15 -42 -126 -76 -201
-61 -349 -73 -539 -45 -290 44 -511 135 -697 289 -109 90 -358 383 -358 421 0
24 318 26 550 4z m1100 -1154 c0 -36 -44 -126 -73 -151 -28 -24 -37 -26 -103
-22 -54 2 -80 9 -101 24 -49 37 -41 78 21 112 85 44 256 69 256 37z m200 -668
c14 -3 56 -8 95 -12 38 -4 99 -13 135 -19 74 -14 72 -8 39 -121 -27 -91 -62
-151 -101 -171 -46 -24 -127 -27 -358 -15 -262 14 -334 32 -365 91 -13 25 -45
200 -45 246 0 15 26 16 288 11 158 -3 298 -7 312 -10z m-667 -119 c22 -164 42
-202 124 -244 83 -43 210 -58 488 -59 l220 0 46 27 c25 15 58 46 73 69 27 41
86 196 86 228 1 41 12 42 151 7 260 -66 370 -130 398 -233 23 -82 1 -142 -76
-215 -126 -117 -350 -180 -783 -222 -69 -6 -154 -12 -189 -11 l-64 0 -24 44
c-30 57 -49 78 -98 106 -60 36 -155 52 -410 70 -44 3 -105 7 -135 10 -30 2
-95 7 -145 10 -114 8 -272 30 -310 45 -92 35 -133 92 -115 161 41 151 284 273
636 318 123 15 109 27 127 -111z"/>
                        <path d="M6292 9387 c-18 -21 -48 -228 -68 -458 -5 -63 -3 -78 11 -92 9 -9 22
-17 29 -17 24 0 46 36 46 74 0 52 40 448 46 458 3 4 0 17 -6 28 -12 23 -42 26
-58 7z"/>
                        <path d="M6048 8255 c-2 -1 -82 -5 -178 -9 -96 -4 -193 -9 -215 -12 -442 -54
-693 -189 -854 -461 -107 -181 -142 -384 -106 -628 20 -140 54 -269 129 -495
66 -201 110 -376 122 -490 7 -71 17 -90 45 -90 36 0 41 39 24 180 -12 97 -52
251 -123 471 -105 320 -135 495 -120 688 14 173 91 340 218 469 107 110 239
180 428 228 188 48 286 55 772 59 541 5 663 -1 1165 -60 329 -39 515 -82 704
-163 224 -97 417 -279 489 -462 52 -133 66 -292 37 -430 -8 -40 -33 -113 -54
-163 -21 -51 -62 -147 -90 -214 -83 -198 -126 -389 -147 -656 -5 -74 -9 -87
-23 -83 -81 23 -352 24 -487 1 -131 -23 -280 -72 -406 -136 -338 -169 -547
-415 -669 -787 -24 -72 -43 -117 -51 -116 -7 1 -83 15 -168 32 -436 86 -788
107 -1135 67 -164 -19 -160 -18 -146 -1 6 7 22 45 35 84 68 198 58 424 -25
599 -108 227 -273 323 -559 323 -301 0 -609 -92 -881 -263 -83 -52 -118 -68
-169 -77 -96 -17 -180 -61 -238 -124 -90 -99 -118 -192 -109 -366 6 -121 32
-213 102 -365 77 -165 90 -219 101 -410 12 -227 63 -466 174 -820 80 -255 100
-344 100 -440 0 -116 -15 -166 -150 -505 -67 -168 -130 -336 -141 -375 -39
-141 -17 -215 63 -215 36 0 47 6 83 43 56 59 124 178 256 447 61 124 115 230
120 236 6 8 52 -4 151 -37 293 -99 598 -171 993 -233 327 -52 418 -59 780 -60
317 -1 337 0 500 28 282 47 275 46 284 22 9 -22 34 -276 51 -516 19 -253 40
-344 85 -374 71 -47 122 2 144 139 31 199 45 680 20 728 -31 61 -87 100 -165
117 -79 17 -77 15 -55 57 22 43 72 92 147 146 124 88 218 219 293 407 42 105
238 739 342 1106 34 120 66 224 73 231 6 6 46 21 90 33 170 47 452 176 601
275 44 29 81 50 83 46 1 -4 -56 -179 -128 -389 -187 -551 -253 -783 -305
-1077 -33 -184 -33 -317 -1 -496 47 -254 59 -354 60 -466 1 -130 -8 -151 -49
-113 -33 31 -67 140 -104 336 -43 222 -73 269 -174 267 -42 -1 -70 -11 -162
-59 -60 -32 -200 -104 -310 -159 -180 -90 -200 -103 -200 -125 0 -19 6 -26 23
-28 37 -5 241 87 525 236 166 88 172 84 222 -183 37 -198 69 -288 120 -342 36
-37 47 -43 82 -43 50 0 87 28 104 77 18 55 5 290 -26 458 -51 287 -57 336 -51
441 14 262 145 730 444 1594 67 196 83 232 122 280 51 63 113 176 129 235 46
177 -18 369 -161 480 -24 19 -71 48 -105 65 -35 17 -64 36 -64 43 -7 61 17
291 42 417 24 118 67 242 153 435 36 83 75 187 86 230 40 155 32 350 -22 492
-71 190 -262 395 -466 497 -255 129 -527 185 -1217 251 -153 14 -894 31 -907
20z m-1192 -2360 c79 -23 138 -60 196 -124 100 -108 148 -242 148 -418 0 -126
-20 -234 -59 -316 -35 -74 -44 -79 -211 -132 -206 -65 -446 -195 -553 -299
-85 -82 -109 -169 -64 -222 31 -36 111 -44 188 -19 78 25 229 106 322 172 84
60 227 196 313 296 l49 58 110 15 c157 22 584 27 745 8 101 -11 325 -47 578
-91 24 -4 31 -10 28 -22 -3 -9 -19 -81 -36 -161 -183 -854 -284 -1083 -541
-1224 -128 -70 -291 -96 -568 -90 -407 9 -766 75 -981 180 -98 48 -126 68
-191 133 -157 157 -191 311 -205 912 l-7 294 28 99 c46 166 36 293 -33 435
-51 105 -134 191 -229 238 -88 44 -94 36 79 124 178 91 364 147 562 169 97 12
270 4 332 -15z m3353 -36 c244 -39 415 -191 429 -381 5 -79 -8 -141 -49 -222
-96 -189 -301 -361 -589 -492 -127 -58 -269 -112 -334 -128 -33 -8 -34 -28 7
174 34 165 42 277 28 370 -22 140 -85 236 -189 287 -52 25 -67 28 -167 28
-104 0 -114 -2 -176 -32 -87 -43 -150 -112 -200 -217 -97 -208 -85 -480 27
-605 48 -54 130 -101 219 -127 48 -13 83 -16 177 -11 81 4 118 3 118 -5 0 -41
-334 -1139 -391 -1285 -67 -170 -148 -276 -306 -398 -68 -52 -129 -132 -139
-183 -4 -18 -11 -35 -16 -38 -14 -9 -384 -63 -513 -75 -128 -12 -457 -7 -650
11 -270 24 -692 99 -992 174 -131 33 -421 120 -486 145 -51 20 -84 14 -107
-19 -12 -17 -63 -117 -114 -223 -147 -304 -257 -490 -278 -469 -16 16 20 127
144 440 135 344 145 371 158 476 17 133 -2 235 -100 551 -109 350 -153 561
-170 816 -12 173 -34 264 -96 396 -94 199 -124 332 -105 468 12 85 38 144 85
193 26 28 93 72 110 72 2 0 -11 -26 -30 -57 -46 -77 -65 -140 -71 -244 -14
-220 99 -435 275 -521 89 -44 182 -46 260 -6 28 15 53 24 56 20 2 -4 5 -68 5
-142 3 -462 34 -700 112 -865 48 -102 173 -224 294 -287 232 -120 588 -191
1040 -205 425 -13 638 53 817 252 146 163 232 410 388 1114 108 486 205 697
410 895 101 97 222 180 357 242 139 65 236 92 413 118 57 8 280 5 339 -5z
m-4388 -308 c221 -83 331 -395 224 -630 -46 -100 -100 -141 -188 -141 -129 0
-269 132 -312 295 -21 79 -22 207 -1 276 19 66 80 164 126 203 39 32 59 31
151 -3z m3617 -146 c85 -26 152 -102 177 -200 10 -42 7 -213 -5 -293 -17 -108
-61 -286 -74 -300 -7 -7 -54 -18 -105 -24 -210 -26 -382 57 -426 205 -32 107
-13 309 39 423 37 81 127 166 196 186 71 21 134 22 198 3z m-2408 -564 c0 -18
-201 -199 -281 -253 -170 -114 -359 -186 -375 -144 -23 60 196 226 426 324 71
30 206 80 223 81 4 1 7 -3 7 -8z m1837 -2374 c18 -12 37 -34 42 -49 11 -32 -2
-412 -20 -573 -13 -124 -25 -169 -39 -145 -11 20 -28 143 -35 260 -4 52 -15
189 -26 304 -10 115 -19 216 -19 224 0 20 54 8 97 -21z"/>
                        <path d="M2547 5173 c-4 -3 -7 -17 -7 -30 0 -42 108 -469 246 -973 142 -518
151 -543 195 -520 10 6 19 21 19 33 0 13 -38 162 -85 333 -47 170 -132 489
-190 709 -58 220 -111 412 -117 428 -10 26 -44 37 -61 20z"/>
                        <path d="M1670 755 l0 -455 65 0 65 0 0 185 0 185 225 0 225 0 0 55 0 55 -225
0 -225 0 0 155 0 155 252 2 253 3 0 55 0 55 -318 3 -317 2 0 -455z"/>
                        <path d="M2482 883 l3 -328 29 -63 c36 -78 105 -142 184 -173 82 -31 243 -31
324 0 79 31 148 95 184 173 l29 63 3 328 3 327 -59 0 -60 0 -4 -302 c-4 -257
-7 -310 -22 -350 -68 -184 -368 -201 -457 -26 -29 57 -38 161 -37 433 l0 240
-61 3 -62 3 3 -328z"/>
                        <path d="M3510 755 l0 -455 65 0 65 0 0 140 0 140 138 0 139 0 98 -140 97
-140 69 0 c38 0 69 3 68 8 0 4 -47 72 -104 152 l-103 145 36 19 c103 52 156
144 155 273 0 134 -52 216 -168 269 -74 34 -158 44 -367 44 l-188 0 0 -455z
m451 325 c94 -26 144 -91 144 -185 0 -102 -57 -171 -157 -195 -24 -5 -103 -10
-175 -10 l-133 0 0 200 0 200 143 0 c78 0 158 -5 178 -10z"/>
                        <path d="M4448 765 c-2 -245 -1 -450 0 -455 5 -15 122 -13 122 3 -1 240 4 617
9 630 5 13 58 -47 226 -255 346 -429 307 -388 365 -388 l50 0 0 455 0 455 -65
0 -65 0 -2 -332 -3 -332 -79 100 c-44 54 -165 204 -268 332 l-189 232 -49 0
-50 0 -2 -445z"/>
                        <path d="M5490 755 l0 -455 65 0 65 0 0 455 0 455 -65 0 -65 0 0 -455z"/>
                        <path d="M5760 1150 l0 -60 155 0 155 0 0 -395 0 -395 65 0 65 0 0 395 0 395
155 0 155 0 0 60 0 60 -375 0 -375 0 0 -60z"/>
                        <path d="M6630 1193 c-3 -553 -2 -597 20 -665 52 -169 226 -260 433 -228 138
21 232 91 279 209 22 53 23 71 26 379 l3 322 -60 0 c-57 0 -61 -2 -61 -22 0
-13 -1 -147 -3 -298 -4 -254 -6 -279 -26 -332 -37 -97 -118 -148 -234 -148
-71 0 -138 25 -179 67 -67 68 -71 91 -76 431 l-4 302 -59 0 c-49 0 -59 -3 -59
-17z"/>
                        <path d="M7660 1198 c0 -7 0 -211 -1 -453 l-1 -440 63 0 63 0 -1 124 c-1 68 1
130 4 138 4 10 36 13 142 13 l136 0 98 -140 98 -140 70 0 c50 0 68 3 63 11 -4
7 -51 75 -105 152 l-98 141 48 28 c97 55 143 143 142 269 -1 161 -104 271
-278 299 -91 15 -443 13 -443 -2z m500 -138 c108 -61 127 -228 34 -309 -54
-48 -120 -62 -275 -59 l-134 3 -3 184 c-2 101 -1 190 2 198 5 12 32 14 169 11
151 -3 165 -5 207 -28z"/>
                        <path d="M8590 755 l0 -455 330 0 330 0 0 60 0 60 -265 0 -266 0 3 141 3 142
214 -1 c118 0 220 2 226 5 10 3 14 69 7 106 -1 4 -103 7 -227 7 l-225 0 0 135
0 135 255 0 255 0 0 60 0 60 -320 0 -320 0 0 -455z"/>
                </g>
        </symbol>
        <symbol id="icon-favorite" viewBox="0 0 512.000000 512.000000"
 preserveAspectRatio="xMidYMid meet">
                <g transform="translate(0.000000,512.000000) scale(0.100000,-0.100000)"
fill="currentcolor" stroke="none">
                        <path d="M2585 5106 c-243 -56 -434 -229 -511 -463 -26 -78 -29 -102 -29 -213
1 -110 4 -135 29 -205 46 -134 78 -178 259 -362 l169 -172 -18 -48 c-16 -42
-18 -93 -22 -435 -2 -214 -5 -388 -7 -388 -1 0 -24 10 -51 22 -63 28 -168 30
-241 5 -30 -11 -73 -37 -100 -62 l-48 -43 -48 44 c-60 54 -130 79 -223 78 -60
0 -82 -5 -137 -32 -77 -38 -138 -102 -163 -170 -10 -26 -18 -48 -19 -50 -1 -1
-29 10 -61 25 -48 22 -74 27 -134 28 -66 0 -85 -5 -142 -33 -77 -38 -130 -92
-167 -171 l-26 -56 0 -585 0 -585 28 -88 c34 -109 55 -152 228 -454 l139 -243
0 -200 c0 -200 0 -201 25 -225 31 -32 69 -32 101 0 l25 25 -3 228 -3 227 -159
275 c-88 151 -170 302 -183 334 -50 121 -53 169 -53 729 0 511 0 522 21 565
53 108 181 140 282 70 55 -39 62 -66 67 -269 4 -166 7 -189 24 -208 22 -25 72
-28 102 -7 20 14 21 27 28 302 6 255 9 291 26 325 52 101 192 126 281 52 64
-55 69 -77 69 -379 0 -270 0 -271 23 -292 31 -29 77 -29 105 1 21 23 22 30 22
293 0 239 2 273 19 309 50 110 183 145 283 74 60 -43 63 -57 68 -370 5 -264 7
-289 24 -308 26 -29 86 -29 112 0 18 20 19 52 24 808 6 868 2 823 68 870 100
71 233 36 283 -74 18 -38 19 -91 19 -1016 0 -967 0 -975 20 -997 28 -30 82
-30 110 0 19 21 20 34 20 296 l0 275 45 -6 c70 -7 134 -52 168 -117 l28 -55
-3 -360 c-5 -473 12 -420 -267 -860 l-171 -269 0 -227 0 -228 26 -20 c43 -34
86 -26 109 20 12 22 15 71 15 220 l0 192 171 269 c266 419 269 430 269 929 0
308 -2 342 -20 400 -45 146 -190 259 -332 259 l-37 0 -3 653 -3 652 -28 57
c-36 74 -119 150 -189 174 -32 11 -81 19 -124 18 -59 0 -82 -5 -133 -30 l-61
-30 -158 160 c-114 117 -167 178 -190 222 -112 215 -64 483 117 645 194 174
489 184 688 23 66 -54 87 -53 166 5 222 163 506 143 698 -48 168 -167 205
-409 98 -624 -26 -52 -84 -115 -370 -402 -186 -187 -342 -351 -347 -365 -22
-60 37 -115 97 -90 42 17 668 652 718 728 139 209 148 488 25 712 -46 85 -177
216 -262 263 -110 60 -197 82 -330 82 -154 -1 -241 -25 -385 -110 -30 -17 -30
-17 -90 19 -132 80 -343 116 -490 82z"/>
                </g>
        </symbol>
        <symbol id="icon-basket" viewBox="0 0 512.000000 512.000000"
 preserveAspectRatio="xMidYMid meet">
                <g transform="translate(0.000000,512.000000) scale(0.100000,-0.100000)"
fill="currentcolor" stroke="none">
                        <path d="M232 4887 c-21 -22 -22 -32 -22 -179 0 -138 2 -158 19 -179 l19 -24
374 -5 373 -5 311 -1448 c171 -797 318 -1464 327 -1482 25 -53 86 -114 141
-143 l51 -27 1327 -3 1326 -2 21 26 c19 24 21 40 21 179 0 136 -2 155 -19 176
l-19 24 -1246 3 c-685 1 -1246 4 -1246 7 0 4 -64 305 -75 353 l-5 22 1283 0
c1038 0 1287 2 1301 13 25 18 422 1859 409 1897 -5 13 -20 30 -33 37 -20 10
-376 13 -1702 13 -1588 0 -1677 1 -1682 18 -3 9 -30 134 -61 277 -30 143 -64
278 -76 301 -27 56 -80 109 -142 142 l-52 27 -450 3 -451 3 -22 -24z m918
-139 c33 -17 51 -35 68 -68 16 -31 117 -486 338 -1514 212 -992 320 -1476 331
-1488 15 -17 71 -18 1255 -18 l1238 0 0 -65 0 -65 -1250 0 c-1040 0 -1256 2
-1283 14 -56 24 -85 65 -106 151 -11 44 -155 715 -322 1490 -242 1131 -306
1414 -322 1433 l-20 22 -364 0 -363 0 0 65 0 65 378 0 c372 0 378 0 422 -22z
m1074 -780 c6 -35 46 -410 46 -428 0 -7 -108 -10 -325 -10 l-325 0 -5 23 c-12
55 -95 439 -95 443 0 2 157 4 350 4 l349 0 5 -32z m844 -205 l2 -233 -330 0
-330 0 0 23 c-1 12 -11 114 -24 227 -13 113 -21 208 -19 213 2 4 160 6 351 5
l347 -3 3 -232z m842 230 c0 -5 -11 -109 -25 -232 -14 -124 -25 -226 -25 -228
0 -2 -146 -3 -325 -3 l-325 0 0 235 0 235 350 0 c193 0 350 -3 350 -7z m840
-5 c0 -7 -22 -112 -48 -233 l-48 -220 -328 -3 -327 -2 6 42 c6 48 45 406 45
419 0 5 158 9 350 9 273 0 350 -3 350 -12z m-2459 -620 c0 -13 10 -115 23
-228 12 -113 21 -208 19 -212 -4 -7 -583 -12 -583 -5 0 3 -87 410 -95 445 l-5
22 320 0 320 0 1 -22z m777 -210 l-3 -233 -292 -3 -292 -2 -5 32 c-6 37 -46
406 -46 426 0 9 71 12 320 12 l320 0 -2 -232z m771 195 c0 -21 -10 -126 -22
-233 l-22 -195 -292 -3 -293 -2 0 235 0 235 315 0 315 0 -1 -37z m780 25 c0
-7 -22 -112 -48 -233 l-48 -220 -291 -3 c-273 -2 -292 -1 -292 15 0 26 41 426
46 441 5 18 634 18 633 0z m-2264 -630 c5 -35 45 -399 45 -417 0 -8 -82 -11
-259 -11 -239 0 -260 1 -265 18 -3 9 -23 105 -46 212 -23 107 -43 203 -46 213
-5 16 13 17 280 17 l285 0 6 -32z m715 -198 l0 -230 -265 0 c-216 0 -265 2
-265 14 0 20 -39 387 -45 419 l-4 27 289 0 290 0 0 -230z m706 188 c-3 -24
-13 -108 -21 -188 -8 -80 -18 -164 -21 -187 l-5 -43 -260 0 -259 0 0 230 0
230 286 0 285 0 -5 -42z m709 10 c-4 -18 -25 -121 -48 -228 l-42 -195 -263 -3
-263 -2 6 42 c5 37 45 404 45 414 0 2 128 4 285 4 l286 0 -6 -32z"/>
                        <path d="M1898 1171 c-207 -66 -340 -250 -340 -471 -2 -439 541 -655 840 -335
147 157 180 367 86 553 -87 176 -245 273 -443 271 -54 0 -107 -7 -143 -18z
m276 -142 c113 -42 208 -166 222 -289 14 -124 -50 -258 -157 -329 -94 -63
-189 -76 -303 -41 -88 27 -171 103 -211 191 -82 184 13 405 205 472 66 23 177
21 244 -4z"/>
                        <path d="M1990 931 c-116 -36 -192 -146 -177 -256 18 -126 112 -205 243 -205
159 1 272 179 205 326 -47 103 -171 165 -271 135z m100 -146 c59 -30 68 -98
21 -146 -78 -77 -200 14 -147 110 15 26 51 50 79 51 10 0 31 -7 47 -15z"/>
                        <path d="M4068 1166 c-154 -54 -269 -175 -313 -330 -13 -43 -16 -85 -13 -160
3 -92 7 -108 41 -179 94 -198 300 -311 513 -280 264 38 455 288 417 549 -13
87 -63 199 -119 263 -122 141 -348 200 -526 137z m286 -137 c116 -43 209 -167
222 -295 5 -48 2 -77 -14 -130 -82 -265 -407 -339 -592 -137 -146 160 -112
422 70 531 71 42 99 50 187 51 50 1 89 -5 127 -20z"/>
                        <path d="M4170 931 c-110 -34 -174 -119 -175 -231 0 -53 5 -73 28 -112 122
-207 436 -126 437 113 0 68 -37 148 -86 185 -57 44 -144 63 -204 45z m100
-146 c56 -29 67 -93 24 -144 -51 -61 -148 -30 -161 51 -5 33 -2 41 30 73 38
38 63 43 107 20z"/>
                </g>
        </symbol>
        <symbol id="icon-vk" viewBox="0 0 217.000000 213.000000"
 preserveAspectRatio="xMidYMid meet">
                <g transform="translate(0.000000,213.000000) scale(0.100000,-0.100000)"
fill="currentcolor" stroke="none">
                        <path d="M511 2119 c-278 -30 -418 -134 -475 -354 -28 -111 -36 -265 -36 -710
0 -445 8 -599 36 -710 46 -177 152 -283 330 -329 54 -14 150 -16 709 -16 559
0 655 2 709 16 178 46 284 152 330 329 28 111 36 265 36 710 0 244 -5 489 -11
546 -35 355 -163 483 -518 518 -123 13 -988 12 -1110 0z m113 -731 c18 -184
68 -318 153 -409 39 -42 124 -99 148 -99 3 0 5 131 5 290 l0 290 110 0 110 0
0 -165 c0 -125 3 -165 13 -165 30 1 102 43 153 91 57 54 112 136 135 202 l13
37 108 0 c82 0 108 -3 108 -13 0 -7 -9 -41 -21 -75 -36 -106 -132 -237 -219
-297 -22 -15 -40 -30 -40 -34 0 -3 23 -19 51 -36 108 -64 247 -244 274 -357
l7 -28 -119 0 -119 0 -31 64 c-62 126 -150 197 -285 230 l-28 6 0 -151 0 -152
-92 6 c-305 19 -512 182 -614 480 -28 83 -54 228 -54 305 l0 52 114 0 113 0 7
-72z"/>
                </g>
        </symbol>
        <symbol id="icon-tg" viewBox="0 0 215.000000 213.000000"
 preserveAspectRatio="xMidYMid meet">
                <g transform="translate(0.000000,213.000000) scale(0.100000,-0.100000)"
fill="currentColor" stroke="none">
                        <path d="M521 2119 c-174 -19 -280 -60 -360 -140 -85 -86 -122 -187 -141 -390
-15 -144 -7 -1088 9 -1169 41 -214 131 -332 297 -391 l69 -24 662 -3 c732 -3
738 -2 854 60 107 57 177 152 215 293 18 65 19 115 19 700 0 583 -1 635 -19
700 -53 200 -173 309 -386 351 -71 14 -170 17 -610 19 -289 2 -563 -1 -609 -6z
m1096 -587 c29 -18 33 -61 17 -185 -31 -241 -123 -768 -143 -812 -24 -55 -57
-71 -110 -54 -38 12 -386 243 -433 287 -53 49 -47 59 179 279 169 163 206 204
195 214 -16 17 -15 17 -316 -184 -131 -88 -256 -166 -279 -174 -46 -16 -83
-12 -202 23 -102 30 -152 53 -159 71 -10 25 11 50 61 73 91 43 649 282 833
358 264 107 324 125 357 104z"/>
                </g>
        </symbol>
        <symbol id="icon-whatsapp" viewBox="0 0 221.000000 216.000000"
 preserveAspectRatio="xMidYMid meet">
                <g transform="translate(0.000000,216.000000) scale(0.100000,-0.100000)"
fill="currentColor" stroke="none">
                        <path d="M561 2149 c-179 -20 -277 -56 -361 -135 -88 -83 -131 -199 -149 -411
-14 -153 -14 -883 0 -1036 24 -276 96 -410 262 -487 127 -60 192 -65 802 -65
401 0 570 3 624 13 269 47 384 159 433 427 18 100 18 1160 0 1260 -48 262
-160 376 -418 426 -74 14 -1074 21 -1193 8z m703 -489 c216 -55 378 -216 432
-430 23 -91 15 -253 -16 -335 -118 -309 -445 -464 -748 -354 -92 33 -95 33
-242 -6 -78 -20 -143 -35 -146 -32 -3 3 13 70 35 151 l39 145 -25 53 c-13 28
-31 81 -39 117 -89 421 297 797 710 691z"/>
                        <path d="M1046 1569 c-133 -20 -287 -133 -351 -258 -72 -143 -66 -335 14 -465
l20 -31 -24 -85 c-13 -46 -22 -86 -21 -88 2 -1 42 7 88 20 l85 22 59 -26 c32
-15 80 -32 107 -39 69 -17 209 -7 279 20 120 46 229 156 279 282 26 67 36 194
20 271 -40 191 -205 347 -401 378 -72 11 -71 11 -154 -1z m-46 -275 c36 -80
37 -87 5 -128 -24 -31 -24 -32 -6 -62 40 -65 153 -154 195 -154 12 0 32 15 46
35 14 19 31 35 38 35 24 0 142 -59 143 -72 5 -61 -11 -92 -61 -118 -105 -53
-264 11 -407 163 -127 137 -157 253 -87 337 21 24 34 30 65 30 39 0 40 -1 69
-66z"/>
                </g>
        </symbol>
        <symbol id="icon-email" viewBox="0 0 214.000000 216.000000"
 preserveAspectRatio="xMidYMid meet">
                <g transform="translate(0.000000,216.000000) scale(0.100000,-0.100000)"
fill="currentColor" stroke="none">
                        <path d="M501 2149 c-283 -31 -419 -135 -479 -366 -15 -61 -17 -132 -17 -688
0 -563 2 -627 18 -697 24 -104 67 -186 126 -241 133 -124 273 -147 916 -147
544 0 696 15 823 79 150 76 217 204 242 462 18 177 7 1101 -13 1194 -52 239
-153 340 -392 392 -57 13 -168 16 -605 18 -294 2 -573 -1 -619 -6z m704 -444
c39 -8 106 -33 150 -55 193 -98 314 -269 345 -490 24 -169 -36 -334 -137 -376
-77 -33 -186 -10 -242 50 -24 26 -25 26 -45 7 -12 -11 -47 -32 -80 -47 -52
-23 -67 -26 -140 -22 -66 3 -91 10 -134 33 -221 120 -221 440 -1 560 69 37
180 46 257 21 65 -22 145 -93 179 -160 22 -43 27 -69 33 -169 5 -103 8 -120
28 -139 14 -14 34 -22 56 -22 69 0 100 59 100 189 0 100 -25 188 -74 264 -81
126 -206 209 -347 233 -249 42 -504 -124 -568 -367 -19 -76 -19 -184 0 -260
60 -228 293 -392 526 -371 69 6 166 35 208 63 24 16 25 15 67 -33 23 -27 41
-51 39 -55 -9 -14 -136 -70 -196 -85 -77 -21 -223 -23 -299 -5 -30 7 -93 31
-139 53 -68 33 -101 56 -166 122 -135 136 -191 281 -182 471 8 170 66 303 183
419 154 153 365 216 579 171z"/>
                        <path d="M1030 1271 c-94 -29 -144 -91 -145 -180 0 -75 28 -127 90 -166 99
-62 234 -19 274 88 15 39 14 111 -3 150 -17 43 -76 93 -123 106 -43 12 -57 12
-93 2z"/>
                </g>
        </symbol>
        <symbol id="icon-phone" viewBox="0 0 512.000000 512.000000"
 preserveAspectRatio="xMidYMid meet">
                <g transform="translate(0.000000,512.000000) scale(0.100000,-0.100000)"
fill="currentColor" stroke="none">
                        <path d="M916 5105 c-81 -21 -164 -67 -249 -140 -94 -81 -431 -424 -486 -495
-223 -285 -227 -728 -11 -1300 263 -699 756 -1407 1380 -1982 860 -793 2012
-1306 2605 -1162 88 21 234 89 301 140 68 51 520 515 562 576 78 113 108 264
78 392 -34 143 -45 156 -480 592 -439 439 -453 450 -598 480 -115 24 -232 3
-345 -62 -26 -16 -150 -129 -275 -253 l-227 -224 -73 38 c-179 93 -311 182
-508 344 -202 166 -484 457 -640 661 -113 148 -279 421 -280 458 0 7 78 89
173 182 200 195 279 286 324 372 56 109 67 247 28 361 -39 116 -77 160 -459
543 -378 378 -436 428 -544 465 -75 27 -199 33 -276 14z m232 -281 c28 -16
188 -167 403 -383 389 -390 404 -408 403 -511 0 -91 -24 -123 -285 -384 -132
-131 -247 -252 -255 -269 -12 -21 -15 -50 -12 -99 3 -60 11 -83 72 -204 138
-274 320 -515 621 -823 299 -306 597 -534 904 -692 109 -56 130 -64 180 -63
34 0 70 7 91 18 19 10 143 126 275 257 170 169 253 244 285 258 60 27 138 27
193 0 60 -30 767 -736 798 -798 17 -33 24 -63 24 -106 0 -103 -21 -131 -305
-416 -281 -282 -307 -301 -457 -335 -145 -32 -388 -6 -634 67 -375 111 -879
377 -1294 683 -799 588 -1485 1487 -1770 2318 -136 395 -151 678 -47 888 32
67 62 101 270 312 128 130 251 248 272 263 90 62 182 69 268 19z"/>
                </g>
        </symbol>
        <symbol id="icon-close" viewBox="0 0 512.000000 512.000000"
 preserveAspectRatio="xMidYMid meet">
                <g transform="translate(0.000000,512.000000) scale(0.100000,-0.100000)"
fill="currentColor" stroke="none">
                        <path d="M835 4381 c-48 -22 -79 -54 -100 -103 -19 -47 -19 -79 0 -126 11 -26
248 -269 793 -814 l777 -778 -782 -782 c-842 -844 -815 -814 -799 -901 13 -71
82 -140 153 -153 87 -16 57 -43 901 799 l782 782 783 -782 c843 -842 813 -815
900 -799 71 13 140 82 153 153 16 87 43 57 -799 901 l-782 782 782 783 c842
843 815 813 799 900 -13 71 -82 140 -153 153 -87 16 -57 43 -901 -799 l-782
-782 -778 777 c-545 545 -788 782 -814 793 -49 20 -84 19 -133 -4z"/>
                </g>
        </symbol>
        <symbol id="icon-persone" viewBox="0 0 512.000000 512.000000"
 preserveAspectRatio="xMidYMid meet">
                <g transform="translate(0.000000,512.000000) scale(0.100000,-0.100000)"
fill="currentColor" stroke="none">
                        <path d="M2380 4794 c-539 -49 -1022 -274 -1401 -653 -408 -408 -633 -923
-656 -1501 -31 -783 353 -1523 1013 -1953 270 -177 572 -291 904 -344 158 -25
489 -24 649 0 493 77 925 299 1272 654 182 186 298 349 409 576 242 492 293
1052 146 1587 -232 843 -949 1479 -1821 1615 -97 15 -425 27 -515 19z m330
-214 c871 -66 1604 -684 1815 -1530 77 -309 79 -654 5 -965 -62 -264 -191
-532 -363 -759 -72 -94 -256 -288 -270 -283 -5 1 -22 36 -37 77 -119 328 -364
601 -678 759 -151 76 -376 138 -512 142 -40 1 -37 3 30 14 253 43 453 144 616
310 131 134 218 281 268 457 165 574 -178 1169 -762 1325 -86 23 -116 26 -262
26 -146 0 -176 -3 -262 -26 -369 -98 -657 -378 -762 -741 -148 -510 117 -1066
606 -1272 88 -38 167 -60 278 -79 69 -11 71 -13 29 -14 -209 -5 -516 -119
-713 -264 -215 -158 -407 -420 -483 -659 -10 -32 -21 -58 -25 -58 -15 0 -144
128 -220 220 -605 722 -633 1761 -67 2515 344 459 889 761 1452 804 150 12
170 12 317 1z m59 -661 c315 -80 562 -340 626 -658 23 -112 16 -294 -15 -401
-80 -280 -300 -499 -585 -586 -80 -24 -106 -27 -235 -27 -129 0 -155 3 -235
27 -232 70 -419 226 -525 437 -58 115 -81 204 -87 345 -11 248 64 449 236 627
213 223 524 312 820 236z m-3 -2124 c242 -43 456 -157 631 -338 100 -104 152
-176 210 -292 40 -79 93 -230 93 -263 0 -41 -299 -196 -511 -266 -505 -167
-1035 -130 -1514 104 -77 38 -168 87 -202 109 l-62 40 20 71 c101 354 363 643
704 773 78 30 177 57 265 70 67 11 285 6 366 -8z"/>
                </g>
        </symbol>
</svg>