<?xml version="1.0" standalone="no"?>
<!DOCTYPE svg PUBLIC "-//W3C//DTD SVG 20010904//EN"
 "http://www.w3.org/TR/2001/REC-SVG-20010904/DTD/svg10.dtd">
<svg version="1.0" xmlns="http://www.w3.org/2000/svg"
 width="214.000000pt" height="216.000000pt" viewBox="0 0 214.000000 216.000000"
 preserveAspectRatio="xMidYMid meet">

<g transform="translate(0.000000,216.000000) scale(0.100000,-0.100000)"
fill="#000000" stroke="none">
<path d="M501 2149 c-283 -31 -419 -135 -479 -366 -15 -61 -17 -132 -17 -688
0 -563 2 -627 18 -697 24 -104 67 -186 126 -241 133 -124 273 -147 916 -147
544 0 696 15 823 79 150 76 217 204 242 462 18 177 7 1101 -13 1194 -52 239
-153 340 -392 392 -57 13 -168 16 -605 18 -294 2 -573 -1 -619 -6z m704 -444
c39 -8 106 -33 150 -55 193 -98 314 -269 345 -490 24 -169 -36 -334 -137 -376
-77 -33 -186 -10 -242 50 -24 26 -25 26 -45 7 -12 -11 -47 -32 -80 -47 -52
-23 -67 -26 -140 -22 -66 3 -91 10 -134 33 -221 120 -221 440 -1 560 69 37
180 46 257 21 65 -22 145 -93 179 -160 22 -43 27 -69 33 -169 5 -103 8 -120
28 -139 14 -14 34 -22 56 -22 69 0 100 59 100 189 0 100 -25 188 -74 264 -81
126 -206 209 -347 233 -249 42 -504 -124 -568 -367 -19 -76 -19 -184 0 -260
60 -228 293 -392 526 -371 69 6 166 35 208 63 24 16 25 15 67 -33 23 -27 41
-51 39 -55 -9 -14 -136 -70 -196 -85 -77 -21 -223 -23 -299 -5 -30 7 -93 31
-139 53 -68 33 -101 56 -166 122 -135 136 -191 281 -182 471 8 170 66 303 183
419 154 153 365 216 579 171z"/>
<path d="M1030 1271 c-94 -29 -144 -91 -145 -180 0 -75 28 -127 90 -166 99
-62 234 -19 274 88 15 39 14 111 -3 150 -17 43 -76 93 -123 106 -43 12 -57 12
-93 2z"/>
</g>
</svg>
