<?xml version="1.0" standalone="no"?>
<!DOCTYPE svg PUBLIC "-//W3C//DTD SVG 20010904//EN"
 "http://www.w3.org/TR/2001/REC-SVG-20010904/DTD/svg10.dtd">
<svg version="1.0" xmlns="http://www.w3.org/2000/svg"
 width="512.000000pt" height="512.000000pt" viewBox="0 0 512.000000 512.000000"
 preserveAspectRatio="xMidYMid meet">

<g transform="translate(0.000000,512.000000) scale(0.100000,-0.100000)"
fill="#000000" stroke="none">
<path d="M2380 4794 c-539 -49 -1022 -274 -1401 -653 -408 -408 -633 -923
-656 -1501 -31 -783 353 -1523 1013 -1953 270 -177 572 -291 904 -344 158 -25
489 -24 649 0 493 77 925 299 1272 654 182 186 298 349 409 576 242 492 293
1052 146 1587 -232 843 -949 1479 -1821 1615 -97 15 -425 27 -515 19z m330
-214 c871 -66 1604 -684 1815 -1530 77 -309 79 -654 5 -965 -62 -264 -191
-532 -363 -759 -72 -94 -256 -288 -270 -283 -5 1 -22 36 -37 77 -119 328 -364
601 -678 759 -151 76 -376 138 -512 142 -40 1 -37 3 30 14 253 43 453 144 616
310 131 134 218 281 268 457 165 574 -178 1169 -762 1325 -86 23 -116 26 -262
26 -146 0 -176 -3 -262 -26 -369 -98 -657 -378 -762 -741 -148 -510 117 -1066
606 -1272 88 -38 167 -60 278 -79 69 -11 71 -13 29 -14 -209 -5 -516 -119
-713 -264 -215 -158 -407 -420 -483 -659 -10 -32 -21 -58 -25 -58 -15 0 -144
128 -220 220 -605 722 -633 1761 -67 2515 344 459 889 761 1452 804 150 12
170 12 317 1z m59 -661 c315 -80 562 -340 626 -658 23 -112 16 -294 -15 -401
-80 -280 -300 -499 -585 -586 -80 -24 -106 -27 -235 -27 -129 0 -155 3 -235
27 -232 70 -419 226 -525 437 -58 115 -81 204 -87 345 -11 248 64 449 236 627
213 223 524 312 820 236z m-3 -2124 c242 -43 456 -157 631 -338 100 -104 152
-176 210 -292 40 -79 93 -230 93 -263 0 -41 -299 -196 -511 -266 -505 -167
-1035 -130 -1514 104 -77 38 -168 87 -202 109 l-62 40 20 71 c101 354 363 643
704 773 78 30 177 57 265 70 67 11 285 6 366 -8z"/>
</g>
</svg>
