<?xml version="1.0" standalone="no"?>
<!DOCTYPE svg PUBLIC "-//W3C//DTD SVG 20010904//EN"
 "http://www.w3.org/TR/2001/REC-SVG-20010904/DTD/svg10.dtd">
<svg version="1.0" xmlns="http://www.w3.org/2000/svg"
 width="512.000000pt" height="512.000000pt" viewBox="0 0 512.000000 512.000000"
 preserveAspectRatio="xMidYMid meet">

<g transform="translate(0.000000,512.000000) scale(0.100000,-0.100000)"
fill="#000000" stroke="none">
<path d="M1750 4913 c-223 -37 -425 -215 -490 -432 l-16 -56 -450 -5 c-339 -4
-454 -8 -471 -18 -54 -30 -68 -127 -26 -174 41 -47 56 -48 515 -48 l433 0 23
-73 c70 -222 270 -386 505 -416 265 -32 511 101 633 343 19 38 37 87 40 108
l7 38 1144 0 c1221 0 1182 -2 1226 48 42 47 28 144 -26 174 -17 10 -265 14
-1180 18 l-1158 5 -25 73 c-85 253 -326 425 -589 420 -38 0 -81 -3 -95 -5z
m265 -272 c281 -139 281 -539 -1 -677 -47 -23 -75 -30 -142 -33 -102 -4 -156
10 -232 61 -105 70 -163 181 -163 313 -1 69 3 90 29 145 37 78 71 120 132 162
111 76 258 87 377 29z"/>
<path d="M3200 3174 c-146 -24 -264 -75 -352 -154 -85 -76 -159 -198 -193
-317 l-6 -23 -1154 -2 -1155 -3 -32 -33 c-48 -47 -48 -117 0 -164 l32 -33
1155 -3 1154 -2 6 -23 c34 -119 108 -241 193 -317 63 -57 187 -121 272 -141
75 -17 211 -15 287 4 172 45 326 170 401 327 22 47 43 99 47 117 l6 32 460 3
459 3 32 33 c28 28 33 39 33 82 0 43 -5 54 -33 82 l-32 33 -459 3 -460 3 -6
32 c-4 18 -25 70 -47 117 -73 153 -228 282 -391 324 -58 15 -178 26 -217 20z
m180 -259 c113 -39 214 -147 240 -255 19 -81 9 -197 -24 -263 -36 -74 -127
-158 -203 -188 -79 -31 -196 -31 -273 -1 -80 31 -162 108 -202 190 -30 61 -33
74 -33 162 0 82 4 103 27 152 85 181 284 268 468 203z"/>
<path d="M1820 1414 c-84 -23 -191 -80 -253 -135 -74 -65 -148 -177 -176 -267
l-24 -72 -494 0 c-524 0 -535 -1 -576 -48 -27 -29 -33 -92 -13 -130 33 -63 24
-62 580 -62 l504 0 21 -68 c30 -98 86 -185 170 -264 86 -80 180 -129 293 -152
97 -20 149 -20 246 0 216 44 396 206 464 417 l22 67 1088 0 c1200 0 1130 -4
1164 62 20 38 14 101 -13 130 -43 49 -10 48 -1161 48 l-1079 0 -24 72 c-28 89
-102 202 -176 267 -64 57 -172 114 -258 136 -75 19 -232 18 -305 -1z m235
-229 c101 -17 214 -107 263 -213 24 -50 27 -70 27 -157 0 -89 -3 -106 -28
-157 -38 -77 -107 -144 -187 -182 -57 -27 -75 -31 -155 -31 -81 0 -97 3 -157
32 -81 38 -146 102 -185 181 -25 51 -28 68 -28 157 0 87 3 107 27 157 35 75
95 138 167 177 57 30 151 52 196 45 11 -2 38 -6 60 -9z"/>
</g>
</svg>
